<?xml version="1.0" encoding="utf-8"?>
<svg version="1.1" xmlns="http://www.w3.org/2000/svg" viewBox="0 0 119 119">
<path d="M86.97,77.24L62.85,61.32c-2.03-1.34-4.67-1.34-6.69,0L32.03,77.24c-2.77,1.83-3.52,5.53-1.67,8.28c1.85,2.74,5.59,3.48,8.36,1.66L59.5,73.46l20.78,13.71c1.03,0.68,2.19,1,3.34,1c1.95,0,3.86-0.93,5.03-2.66C90.49,82.77,89.75,79.06,86.97,77.24z M38.72,63.17L59.5,49.46l20.78,13.71c1.03,0.68,2.19,1,3.34,1c1.95,0,3.86-0.93,5.03-2.66c1.85-2.74,1.1-6.45-1.67-8.28L62.85,37.32c-2.03-1.34-4.67-1.34-6.69,0L32.03,53.24c-2.77,1.83-3.52,5.53-1.67,8.28C32.2,64.25,35.95,65,38.72,63.17z"/>
</svg>
